<svg width="16" height="16" viewBox="0 0 16 16" fill="none" xmlns="http://www.w3.org/2000/svg">
<path d="M0.518131 6.40323C0.508667 6.39418 0.505004 6.38633 0.50304 6.37801C0.500572 6.36754 0.500474 6.35324 0.504935 6.33826C0.509414 6.32323 0.516155 6.31512 0.518984 6.3125C0.519083 6.31241 0.519171 6.31232 0.51926 6.31223C0.519917 6.31154 0.520588 6.31085 0.525607 6.31014L0.526339 6.31004L5.42434 5.61404L5.68275 5.57732L5.80036 5.34431L7.98429 1.01745C7.98833 1.00946 7.99173 1.00532 7.9934 1.00352C7.99511 1.00167 7.99622 1.00094 7.99666 1.00068C7.99757 1.00013 7.99912 0.999512 8.0015 0.999512C8.00387 0.999512 8.00543 1.00013 8.00633 1.00068C8.00677 1.00094 8.00788 1.00167 8.00959 1.00352C8.01126 1.00532 8.01467 1.00946 8.0187 1.01745L10.2026 5.34431L10.3202 5.57732L10.5787 5.61404L15.4767 6.31004L15.4774 6.31014C15.4824 6.31085 15.4831 6.31154 15.4837 6.3122C15.4838 6.31229 15.4839 6.31238 15.484 6.31247C15.4867 6.31504 15.4934 6.32307 15.4978 6.33797C15.5023 6.35282 15.5021 6.36698 15.4997 6.37735C15.4977 6.38559 15.4941 6.39354 15.4843 6.40279L15.4841 6.40303L11.9621 9.75903L11.7682 9.94372L11.8145 10.2074L12.6445 14.9374L12.6446 14.9377C12.6479 14.9567 12.6451 14.9681 12.6424 14.975C12.6391 14.9835 12.6335 14.9907 12.6273 14.9956C12.6249 14.9975 12.623 14.9986 12.6217 14.9993C12.621 14.999 12.6203 14.9987 12.6194 14.9982C12.6193 14.9982 12.6193 14.9982 12.6192 14.9981L8.22849 12.7423L7.99992 12.6248L7.77138 12.7423L3.38379 14.9981C3.38371 14.9982 3.38363 14.9982 3.38355 14.9983C3.38269 14.9987 3.38194 14.999 3.38132 14.9993C3.37997 14.9986 3.37805 14.9975 3.37569 14.9956C3.36952 14.9907 3.36394 14.9835 3.3606 14.975C3.35787 14.9681 3.35508 14.9567 3.35842 14.9377L3.35847 14.9374L4.18847 10.2074L4.23475 9.94368L4.04086 9.75898L0.518208 6.40331C0.518182 6.40328 0.518156 6.40326 0.518131 6.40323Z" fill="#EFC004" stroke="black"/>
</svg>
